<svg xmlns="http://www.w3.org/2000/svg" xmlns:xlink="http://www.w3.org/1999/xlink" width="500" zoomAndPan="magnify" viewBox="0 0 375 374.999991" height="500" preserveAspectRatio="xMidYMid meet" version="1.0"><defs><g/></defs><path fill="#4fd1c5" d="M 217.960938 42.304688 L 215.4375 42.421875 C 197.195312 42.296875 172.519531 47.257812 141.40625 57.300781 C 115.8125 66.441406 97.261719 75.730469 85.75 85.164062 C 74.640625 94.167969 68 100.46875 65.816406 104.066406 C 61.730469 109.273438 58.203125 114.875 55.234375 120.878906 C 46.699219 139.351562 41.535156 159.304688 39.734375 180.730469 C 36.746094 207.976562 36.722656 233.464844 39.671875 257.199219 C 43.945312 278.421875 49.191406 291.914062 55.40625 297.675781 C 59.441406 304.988281 71.972656 312.054688 93 318.875 L 156.324219 333.738281 C 169.472656 336.035156 179.535156 336.914062 186.519531 336.382812 C 213.984375 335.148438 245.011719 322.339844 279.605469 297.957031 L 326.109375 264.21875 C 336.183594 256.109375 341.886719 251.039062 343.222656 249.007812 C 350.84375 239.472656 354.789062 233.421875 355.054688 230.855469 C 356.945312 225.933594 358.003906 221.597656 358.226562 217.84375 C 359.746094 207.507812 355.605469 193.496094 345.804688 175.800781 C 327.714844 146.34375 308.117188 118.476562 287.007812 92.203125 C 270.582031 71.222656 258.960938 58.625 252.144531 54.398438 C 242.039062 46.644531 230.644531 42.613281 217.960938 42.304688 " fill-opacity="1" fill-rule="nonzero"/><path fill="#ffbcfc" d="M 245.875 43.910156 C 245.820312 43.855469 229.738281 28.066406 219.652344 24.070312 C 218.855469 23.753906 218.050781 23.453125 217.234375 23.167969 C 199.578125 16.96875 177.476562 17.609375 161.785156 27.207031 C 150.75 33.957031 144.625 47.191406 139.273438 59.421875 C 136.792969 65.09375 134.5 70.910156 132.199219 76.753906 C 129.890625 82.609375 127.574219 88.492188 125.050781 94.253906 C 120.566406 104.507812 115.414062 114.417969 108.46875 123.203125 C 98.246094 136.128906 83.914062 145.230469 69.804688 154.199219 C 55.742188 163.140625 41.90625 171.945312 32.136719 184.300781 C 30.457031 186.421875 28.902344 188.644531 27.488281 190.988281 C 16.425781 209.316406 22.183594 234.679688 27.890625 255.898438 C 37.5625 291.871094 57.625 332.703125 91.597656 346.84375 C 93.152344 347.492188 94.71875 348.089844 96.304688 348.644531 C 110.96875 353.792969 126.949219 355.273438 142.609375 356.277344 C 172.519531 358.195312 202.730469 356.703125 232.5 353.027344 C 252.421875 350.566406 272.359375 347.238281 291.4375 341.195312 C 305.492188 336.746094 322.234375 329 326.050781 315.394531 C 329.820312 301.960938 324.605469 286.988281 319.53125 273.542969 C 316.054688 264.335938 312.007812 255.359375 307.941406 246.347656 C 304.53125 238.777344 301.105469 231.179688 298.023438 223.449219 C 289.078125 201.011719 284.417969 177.179688 279.78125 153.492188 C 278.148438 145.140625 276.519531 136.816406 274.703125 128.554688 C 270.597656 109.851562 266.296875 91.15625 259.988281 73.148438 C 256.394531 62.894531 245.726562 43.726562 245.714844 43.699219 L 245.875 43.910156 M 247.183594 42.578125 C 247.246094 42.640625 247.300781 42.710938 247.34375 42.789062 C 247.328125 42.761719 258.089844 62.089844 261.75 72.53125 C 268.097656 90.65625 272.417969 109.453125 276.527344 128.152344 C 278.347656 136.4375 279.980469 144.785156 281.613281 153.132812 C 286.253906 176.851562 290.886719 200.511719 299.753906 222.757812 C 302.820312 230.445312 306.226562 238.003906 309.644531 245.578125 C 313.703125 254.585938 317.773438 263.609375 321.273438 272.882812 C 326.308594 286.214844 331.808594 301.777344 327.847656 315.898438 C 323.726562 330.589844 305.929688 338.5625 292 342.976562 C 272.761719 349.070312 252.691406 352.414062 232.726562 354.878906 C 202.867188 358.566406 172.542969 360.070312 142.492188 358.140625 C 126.828125 357.136719 110.617188 355.644531 95.6875 350.40625 C 94.070312 349.839844 92.46875 349.230469 90.882812 348.566406 C 56.046875 334.066406 35.785156 292.445312 26.089844 256.382812 C 20.429688 235.347656 14.347656 209.148438 25.890625 190.023438 C 27.351562 187.605469 28.949219 185.320312 30.671875 183.140625 C 40.675781 170.496094 54.796875 161.527344 68.804688 152.625 C 82.96875 143.617188 97.011719 134.679688 107.003906 122.042969 C 113.808594 113.4375 118.886719 103.691406 123.34375 93.507812 C 125.851562 87.777344 128.152344 81.929688 130.464844 76.066406 C 132.761719 70.230469 135.066406 64.382812 137.566406 58.671875 C 142.871094 46.550781 149.191406 32.71875 160.8125 25.613281 C 177.082031 15.660156 199.792969 15.066406 217.851562 21.402344 C 218.6875 21.699219 219.519531 22.007812 220.335938 22.332031 C 230.855469 26.5 247.238281 42.632812 247.183594 42.578125 Z M 247.183594 42.578125 " fill-opacity="0.9608" fill-rule="nonzero"/><g fill="#303330" fill-opacity="1"><g transform="translate(14.158166, 209.039953)"><g><path d="M 45.25 -36.125 C 45.25 -32.613281 43.988281 -29.226562 41.46875 -25.96875 C 40.132812 -24.28125 38.144531 -22.90625 35.5 -21.84375 C 32.851562 -20.78125 29.722656 -20.25 26.109375 -20.25 L 18.25 -20.25 L 18.25 0 L 5.5625 0 L 5.5625 -52.078125 L 26.109375 -52.078125 C 32.148438 -52.078125 36.847656 -50.519531 40.203125 -47.40625 C 43.566406 -44.289062 45.25 -40.53125 45.25 -36.125 Z M 18.25 -29.890625 L 26.109375 -29.890625 C 28.035156 -29.890625 29.554688 -30.457031 30.671875 -31.59375 C 31.785156 -32.738281 32.34375 -34.238281 32.34375 -36.09375 C 32.34375 -37.945312 31.773438 -39.46875 30.640625 -40.65625 C 29.503906 -41.84375 27.992188 -42.4375 26.109375 -42.4375 L 18.25 -42.4375 Z M 18.25 -29.890625 "/></g></g></g><g fill="#303330" fill-opacity="1"><g transform="translate(61.487541, 209.039953)"><g><path d="M 18.25 -41.390625 L 18.25 -33.6875 C 21.21875 -39.125 25.175781 -41.84375 30.125 -41.84375 L 30.125 -28.9375 L 27 -28.9375 C 24.082031 -28.9375 21.894531 -28.242188 20.4375 -26.859375 C 18.976562 -25.472656 18.25 -23.046875 18.25 -19.578125 L 18.25 0 L 5.5625 0 L 5.5625 -41.390625 Z M 18.25 -41.390625 "/></g></g></g><g fill="#303330" fill-opacity="1"><g transform="translate(92.941537, 209.039953)"><g><path d="M 30.40625 -12.984375 C 32.09375 -14.765625 32.9375 -17.335938 32.9375 -20.703125 C 32.9375 -24.066406 32.070312 -26.625 30.34375 -28.375 C 28.613281 -30.132812 26.5625 -31.015625 24.1875 -31.015625 C 21.8125 -31.015625 19.769531 -30.132812 18.0625 -28.375 C 16.351562 -26.625 15.5 -24.066406 15.5 -20.703125 C 15.5 -17.335938 16.375 -14.765625 18.125 -12.984375 C 19.882812 -11.203125 21.953125 -10.3125 24.328125 -10.3125 C 26.703125 -10.3125 28.726562 -11.203125 30.40625 -12.984375 Z M 8.859375 -5.34375 C 4.679688 -9.25 2.59375 -14.390625 2.59375 -20.765625 C 2.59375 -27.148438 4.671875 -32.257812 8.828125 -36.09375 C 12.984375 -39.925781 18.125 -41.84375 24.25 -41.84375 C 30.382812 -41.84375 35.515625 -39.925781 39.640625 -36.09375 C 43.773438 -32.257812 45.84375 -27.148438 45.84375 -20.765625 C 45.84375 -14.390625 43.789062 -9.25 39.6875 -5.34375 C 35.582031 -1.4375 30.460938 0.515625 24.328125 0.515625 C 18.203125 0.515625 13.046875 -1.4375 8.859375 -5.34375 Z M 8.859375 -5.34375 "/></g></g></g><g fill="#303330" fill-opacity="1"><g transform="translate(141.383665, 209.039953)"><g><path d="M 33.609375 -13.09375 C 35.441406 -14.851562 36.359375 -17.363281 36.359375 -20.625 C 36.359375 -23.882812 35.441406 -26.40625 33.609375 -28.1875 C 31.773438 -29.96875 29.671875 -30.859375 27.296875 -30.859375 C 24.921875 -30.859375 22.816406 -29.976562 20.984375 -28.21875 C 19.160156 -26.46875 18.25 -23.957031 18.25 -20.6875 C 18.25 -17.425781 19.160156 -14.90625 20.984375 -13.125 C 22.816406 -11.34375 24.921875 -10.453125 27.296875 -10.453125 C 29.671875 -10.453125 31.773438 -11.332031 33.609375 -13.09375 Z M 18.25 -35.984375 C 21.070312 -39.890625 25.113281 -41.84375 30.375 -41.84375 C 35.644531 -41.84375 40.109375 -39.847656 43.765625 -35.859375 C 47.429688 -31.878906 49.265625 -26.796875 49.265625 -20.609375 C 49.265625 -14.429688 47.429688 -9.363281 43.765625 -5.40625 C 40.109375 -1.457031 35.679688 0.515625 30.484375 0.515625 C 25.296875 0.515625 21.21875 -1.660156 18.25 -6.015625 L 18.25 19.734375 L 5.5625 19.734375 L 5.5625 -41.390625 L 18.25 -41.390625 Z M 18.25 -35.984375 "/></g></g></g><g fill="#303330" fill-opacity="1"><g transform="translate(193.164076, 209.039953)"><g><path d="M 30.40625 -12.984375 C 32.09375 -14.765625 32.9375 -17.335938 32.9375 -20.703125 C 32.9375 -24.066406 32.070312 -26.625 30.34375 -28.375 C 28.613281 -30.132812 26.5625 -31.015625 24.1875 -31.015625 C 21.8125 -31.015625 19.769531 -30.132812 18.0625 -28.375 C 16.351562 -26.625 15.5 -24.066406 15.5 -20.703125 C 15.5 -17.335938 16.375 -14.765625 18.125 -12.984375 C 19.882812 -11.203125 21.953125 -10.3125 24.328125 -10.3125 C 26.703125 -10.3125 28.726562 -11.203125 30.40625 -12.984375 Z M 8.859375 -5.34375 C 4.679688 -9.25 2.59375 -14.390625 2.59375 -20.765625 C 2.59375 -27.148438 4.671875 -32.257812 8.828125 -36.09375 C 12.984375 -39.925781 18.125 -41.84375 24.25 -41.84375 C 30.382812 -41.84375 35.515625 -39.925781 39.640625 -36.09375 C 43.773438 -32.257812 45.84375 -27.148438 45.84375 -20.765625 C 45.84375 -14.390625 43.789062 -9.25 39.6875 -5.34375 C 35.582031 -1.4375 30.460938 0.515625 24.328125 0.515625 C 18.203125 0.515625 13.046875 -1.4375 8.859375 -5.34375 Z M 8.859375 -5.34375 "/></g></g></g><g fill="#303330" fill-opacity="1"><g transform="translate(241.606204, 209.039953)"><g><path d="M 2.75 -28.9375 C 2.75 -32.59375 4.304688 -35.65625 7.421875 -38.125 C 10.535156 -40.601562 14.75 -41.84375 20.0625 -41.84375 C 25.382812 -41.84375 29.675781 -40.628906 32.9375 -38.203125 C 36.195312 -35.785156 37.925781 -32.472656 38.125 -28.265625 L 25.15625 -28.265625 C 25 -29.703125 24.5 -30.675781 23.65625 -31.1875 C 22.820312 -31.707031 21.5625 -31.96875 19.875 -31.96875 C 16.5625 -31.96875 14.90625 -30.957031 14.90625 -28.9375 C 14.90625 -27.101562 16.9375 -25.84375 21 -25.15625 C 25.101562 -24.457031 28.835938 -23.390625 32.203125 -21.953125 C 33.929688 -21.265625 35.375 -20.113281 36.53125 -18.5 C 37.695312 -16.894531 38.28125 -14.929688 38.28125 -12.609375 C 38.28125 -8.753906 36.625 -5.601562 33.3125 -3.15625 C 30 -0.707031 25.816406 0.515625 20.765625 0.515625 C 15.722656 0.515625 11.519531 -0.628906 8.15625 -2.921875 C 4.789062 -5.222656 2.960938 -8.625 2.671875 -13.125 L 15.65625 -13.125 C 16 -10.601562 17.78125 -9.34375 21 -9.34375 C 22.476562 -9.34375 23.695312 -9.6875 24.65625 -10.375 C 25.625 -11.070312 26.109375 -11.960938 26.109375 -13.046875 C 26.109375 -14.140625 25.304688 -15.007812 23.703125 -15.65625 C 22.097656 -16.300781 20.15625 -16.84375 17.875 -17.28125 C 15.601562 -17.726562 13.316406 -18.285156 11.015625 -18.953125 C 8.710938 -19.617188 6.757812 -20.78125 5.15625 -22.4375 C 3.550781 -24.09375 2.75 -26.257812 2.75 -28.9375 Z M 2.75 -28.9375 "/></g></g></g><g fill="#303330" fill-opacity="1"><g transform="translate(282.778315, 209.039953)"><g><path d="M 23.140625 0.515625 C 17.109375 0.515625 12.160156 -1.421875 8.296875 -5.296875 C 4.441406 -9.179688 2.515625 -14.335938 2.515625 -20.765625 C 2.515625 -27.203125 4.429688 -32.320312 8.265625 -36.125 C 12.097656 -39.9375 17.054688 -41.84375 23.140625 -41.84375 C 29.222656 -41.84375 34.269531 -39.960938 38.28125 -36.203125 C 42.289062 -32.441406 44.296875 -27.222656 44.296875 -20.546875 C 44.296875 -19.117188 44.195312 -17.785156 44 -16.546875 L 15.5 -16.546875 C 15.75 -14.710938 16.566406 -13.210938 17.953125 -12.046875 C 19.335938 -10.890625 20.832031 -10.3125 22.4375 -10.3125 C 24.050781 -10.3125 25.253906 -10.472656 26.046875 -10.796875 C 26.835938 -11.117188 27.414062 -11.4375 27.78125 -11.75 C 28.15625 -12.070312 28.640625 -12.609375 29.234375 -13.359375 L 42.953125 -13.359375 C 41.765625 -9.203125 39.390625 -5.847656 35.828125 -3.296875 C 32.265625 -0.753906 28.035156 0.515625 23.140625 0.515625 Z M 31.078125 -24.484375 C 30.878906 -26.410156 30.039062 -27.976562 28.5625 -29.1875 C 27.082031 -30.40625 25.328125 -31.015625 23.296875 -31.015625 C 21.265625 -31.015625 19.554688 -30.40625 18.171875 -29.1875 C 16.785156 -27.976562 15.921875 -26.410156 15.578125 -24.484375 Z M 31.078125 -24.484375 "/></g></g></g><g fill="#303330" fill-opacity="1"><g transform="translate(332.818459, 178.940508)"><g><path d="M 2.1875 0 L 2.1875 -20.40625 L 7.15625 -20.40625 L 7.15625 0 Z M 2.1875 0 "/></g></g></g><g fill="#303330" fill-opacity="1"><g transform="translate(345.640015, 178.940508)"><g><path d="M 0.78125 -16.625 L 0.78125 -20.40625 L 16.890625 -20.40625 L 16.890625 -16.625 L 11.3125 -16.625 L 11.3125 0 L 6.34375 0 L 6.34375 -16.625 Z M 0.78125 -16.625 "/></g></g></g></svg>